<?xml version="1.0" encoding="UTF-8" standalone="no"?>
<!DOCTYPE svg PUBLIC "-//W3C//DTD SVG 1.1//EN" "http://www.w3.org/Graphics/SVG/1.1/DTD/svg11.dtd">
<svg width="100%" height="100%" viewBox="0 0 2868 737" version="1.1" xmlns="http://www.w3.org/2000/svg" xmlns:xlink="http://www.w3.org/1999/xlink" xml:space="preserve" xmlns:serif="http://www.serif.com/" style="fill-rule:evenodd;clip-rule:evenodd;stroke-linejoin:round;stroke-miterlimit:2;">
    <g id="Artboard1" transform="matrix(1,0,0,1.01748,-1.77305,0.549669)">
        <rect x="1.773" y="-0.54" width="2867.45" height="723.957" style="fill:none;"/>
        <g id="Gill-Sans-MT" serif:id="Gill Sans MT" transform="matrix(1,0,0,0.982818,0.773045,0.442593)">
            <rect x="932.151" y="194.195" width="59.447" height="456.303" style="fill:white;"/>
            <path d="M1333.58,505.474L1122.25,505.474C1123.77,534.217 1133.41,557.081 1151.16,574.066C1168.9,591.051 1191.82,599.543 1219.91,599.543C1259.11,599.543 1295.26,587.349 1328.35,562.961L1328.35,621.101C1310.06,633.295 1291.93,642.005 1273.97,647.231C1256.01,652.457 1234.94,655.071 1210.77,655.071C1177.67,655.071 1150.88,648.211 1130.42,634.493C1109.95,620.774 1093.56,602.32 1081.26,579.129C1068.95,555.938 1062.8,529.1 1062.8,498.615C1062.8,452.886 1075.76,415.705 1101.67,387.07C1127.59,358.436 1161.23,344.118 1202.6,344.118C1242.45,344.118 1274.24,358.055 1297.98,385.927C1321.71,413.8 1333.58,451.144 1333.58,497.961L1333.58,505.474ZM1123.56,469.871L1274.79,469.871C1273.26,446.136 1266.18,427.845 1253.56,414.997C1240.93,402.15 1223.94,395.726 1202.6,395.726C1181.26,395.726 1163.79,402.15 1150.18,414.997C1136.57,427.845 1127.69,446.136 1123.56,469.871Z" style="fill:white;fill-rule:nonzero;"/>
            <path d="M1623.3,580.272L1623.3,639.066C1593.47,650.171 1564.29,655.724 1535.76,655.724C1488.73,655.724 1451.22,641.788 1423.24,613.915C1395.26,586.043 1381.27,548.698 1381.27,501.881C1381.27,454.628 1394.88,416.522 1422.1,387.56C1449.32,358.599 1485.13,344.118 1529.56,344.118C1545.02,344.118 1558.9,345.588 1571.2,348.528C1583.51,351.468 1598.69,356.966 1616.77,365.023L1616.77,428.389C1586.72,409.227 1558.85,399.646 1533.15,399.646C1506.37,399.646 1484.37,409.063 1467.17,427.899C1449.97,446.735 1441.37,470.742 1441.37,499.921C1441.37,530.624 1450.68,555.013 1469.29,573.086C1487.91,591.16 1513.01,600.197 1544.58,600.197C1567.45,600.197 1593.68,593.555 1623.3,580.272Z" style="fill:white;fill-rule:nonzero;"/>
            <path d="M1648.78,397.686L1760.49,287.938L1760.49,349.998L1855.54,349.998L1855.54,403.565L1760.49,403.565L1760.49,550.636C1760.49,584.983 1774.75,602.156 1803.28,602.156C1824.62,602.156 1847.15,595.079 1870.89,580.925L1870.89,636.453C1848.02,649.3 1823.09,655.724 1796.09,655.724C1768.87,655.724 1746.23,647.776 1728.15,631.88C1722.49,627.089 1717.81,621.7 1714.11,615.712C1710.4,609.723 1707.3,601.884 1704.8,592.194C1702.29,582.504 1701.04,564.05 1701.04,536.83L1701.04,403.565L1648.78,403.565L1648.78,397.686Z" style="fill:white;fill-rule:nonzero;"/>
            <path d="M1944.38,223.592C1954.18,223.592 1962.56,226.967 1969.53,233.717C1976.5,240.468 1979.98,248.742 1979.98,258.541C1979.98,268.122 1976.5,276.397 1969.53,283.365C1962.56,290.333 1954.18,293.817 1944.38,293.817C1935.24,293.817 1927.18,290.279 1920.21,283.202C1913.24,276.125 1909.76,267.905 1909.76,258.541C1909.76,249.396 1913.24,241.284 1920.21,234.207C1927.18,227.13 1935.24,223.592 1944.38,223.592ZM1914.98,349.998L1974.43,349.998L1974.43,650.498L1914.98,650.498L1914.98,349.998Z" style="fill:white;fill-rule:nonzero;"/>
            <path d="M2244.44,349.998L2308.9,349.998L2176.18,655.724L2156.06,655.724L2020.16,349.998L2085.22,349.998L2166.32,534.871L2244.44,349.998Z" style="fill:white;fill-rule:nonzero;"/>
            <path d="M2542.11,469.871L2542.11,597.584C2542.11,607.818 2545.59,612.935 2552.56,612.935C2559.75,612.935 2570.96,607.6 2586.2,596.93L2586.2,633.186C2572.7,641.896 2561.87,647.83 2553.7,650.988C2545.54,654.145 2536.99,655.724 2528.07,655.724C2502.59,655.724 2487.56,645.707 2482.99,625.674C2457.73,645.272 2430.84,655.071 2402.31,655.071C2381.41,655.071 2363.99,648.157 2350.05,634.33C2336.12,620.502 2329.15,603.136 2329.15,582.232C2329.15,563.287 2335.95,546.357 2349.56,531.441C2363.17,516.525 2382.5,504.712 2407.54,496.002L2483.64,469.871L2483.64,453.866C2483.64,417.719 2465.57,399.646 2429.42,399.646C2396.98,399.646 2365.4,416.413 2334.7,449.947L2334.7,384.947C2357.78,357.728 2390.99,344.118 2434.32,344.118C2466.77,344.118 2492.79,352.611 2512.39,369.596C2518.92,375.039 2524.8,382.28 2530.02,391.317C2535.25,400.353 2538.57,409.39 2539.99,418.427C2541.4,427.464 2542.11,444.612 2542.11,469.871ZM2483.64,591.051L2483.64,501.881L2443.79,517.233C2423.54,525.289 2409.23,533.401 2400.84,541.567C2392.46,549.732 2388.27,559.912 2388.27,572.106C2388.27,584.518 2392.24,594.644 2400.19,602.483C2408.14,610.322 2418.43,614.242 2431.06,614.242C2450,614.242 2467.53,606.511 2483.64,591.051Z" style="fill:white;fill-rule:nonzero;"/>
            <path d="M704.423,401.982L704.423,401.989C675.244,401.989 651.019,413.118 632.401,431.518C614.22,449.487 604.916,472.386 604.489,500.222L604.489,500.244C604.489,500.867 604.486,501.49 604.479,502.112C604.731,530.32 614.038,553.499 632.401,571.647C651.019,590.047 674.917,599.247 704.096,599.247C733.493,599.247 757.554,590.156 776.281,571.974C795.008,553.791 804.371,530.328 804.371,501.585C804.371,472.624 795.226,448.78 776.935,430.053C758.643,411.326 735.235,401.962 706.709,401.962C705.945,401.962 705.184,401.969 704.423,401.982ZM704.423,348.398C750.151,348.604 788.203,363.247 818.58,392.327C849.174,421.615 864.471,458.252 864.471,502.238C864.471,545.789 849.338,582.099 819.07,611.169C788.802,640.239 751.131,654.774 706.056,654.774C659.457,654.774 620.805,640.457 590.102,611.822C584.425,606.528 579.273,600.982 574.644,595.183C569.825,601.325 564.422,607.188 558.434,612.772C527.731,641.407 489.08,655.724 442.481,655.724C397.406,655.724 359.734,641.189 329.467,612.119C299.199,583.049 284.065,546.738 284.065,503.187C284.065,459.201 299.362,422.564 329.956,393.276C360.334,364.196 398.385,349.553 444.114,349.347L445.133,349.357C488.241,349.863 524.46,362.784 553.784,388.118L512.694,429.208C494.568,412.762 471.527,402.938 444.114,402.938C444.114,402.938 442.592,402.912 441.827,402.912C413.302,402.912 389.893,412.275 371.602,431.002C353.311,449.729 344.165,473.573 344.165,502.534C344.165,531.278 353.528,554.741 372.255,572.923C390.982,591.105 415.044,600.197 444.44,600.197C473.619,600.197 497.518,590.997 516.136,572.596C534.316,554.629 543.62,531.729 544.047,503.899L544.047,503.871C544.047,503.232 544.05,502.594 544.057,501.958C544.031,499.2 544.118,494.228 544.118,494.228C545.274,453.151 560.602,418.855 590.102,391.343C620.446,363.043 658.553,348.728 704.423,348.398Z" style="fill:url(#_Linear1);fill-rule:nonzero;"/>
        </g>
    </g>
    <defs>
        <linearGradient id="_Linear1" x1="0" y1="0" x2="1" y2="0" gradientUnits="userSpaceOnUse" gradientTransform="matrix(432.714,0,0,432.714,401.445,499.252)"><stop offset="0" style="stop-color:white;stop-opacity:1"/><stop offset="1" style="stop-color:rgb(120,0,168);stop-opacity:1"/></linearGradient>
    </defs>
</svg>
