<?xml version="1.0" encoding="UTF-8" standalone="no"?><!DOCTYPE svg PUBLIC "-//W3C//DTD SVG 1.1//EN" "http://www.w3.org/Graphics/SVG/1.1/DTD/svg11.dtd"><svg width="100%" height="100%" viewBox="0 0 3334 2500" version="1.1" xmlns="http://www.w3.org/2000/svg" xmlns:xlink="http://www.w3.org/1999/xlink" xml:space="preserve" xmlns:serif="http://www.serif.com/" style="fill-rule:evenodd;clip-rule:evenodd;stroke-linejoin:round;stroke-miterlimit:2;"><g id="Gill-Sans-MT" serif:id="Gill Sans MT"><rect x="1235.31" y="956.706" width="59.447" height="456.303" style="fill:#57435d;fill-rule:nonzero;"/><path d="M1636.74,1267.98l-211.33,0c1.524,28.744 11.16,51.608 28.907,68.593c17.747,16.984 40.665,25.477 68.755,25.477c39.196,-0 75.343,-12.194 108.442,-36.583l-0,58.14c-18.292,12.195 -36.42,20.905 -54.384,26.131c-17.965,5.226 -39.033,7.839 -63.203,7.839c-33.099,-0 -59.883,-6.859 -80.351,-20.578c-20.469,-13.718 -36.855,-32.173 -49.158,-55.364c-12.303,-23.19 -18.455,-50.029 -18.455,-80.514c0,-45.728 12.956,-82.91 38.869,-111.544c25.913,-28.635 59.556,-42.952 100.929,-42.952c39.849,-0 71.641,13.936 95.376,41.809c23.735,27.872 35.603,65.217 35.603,112.034l-0,7.512Zm-210.024,-35.602l151.23,-0c-1.524,-23.736 -8.601,-42.027 -21.231,-54.874c-12.629,-12.848 -29.614,-19.272 -50.954,-19.272c-21.34,0 -38.815,6.424 -52.424,19.272c-13.61,12.847 -22.483,31.138 -26.621,54.874Z" style="fill:#57435d;fill-rule:nonzero;"/><path d="M1926.46,1342.78l-0,58.793c-29.832,11.105 -59.011,16.658 -87.537,16.658c-47.035,0 -84.543,-13.936 -112.524,-41.809c-27.982,-27.872 -41.972,-65.217 -41.972,-112.034c-0,-47.252 13.609,-85.359 40.828,-114.32c27.22,-28.962 63.04,-43.442 107.462,-43.442c15.46,-0 29.342,1.47 41.645,4.409c12.303,2.94 27.492,8.438 45.565,16.495l0,63.366c-30.05,-19.162 -57.922,-28.743 -83.617,-28.743c-26.784,-0 -48.777,9.418 -65.98,28.254c-17.202,18.835 -25.803,42.843 -25.803,72.021c-0,30.704 9.309,55.092 27.927,73.166c18.617,18.073 43.714,27.11 75.288,27.11c22.864,-0 49.103,-6.641 78.718,-19.924Z" style="fill:#57435d;fill-rule:nonzero;"/><path d="M1951.93,1160.2l111.707,-109.748l0,62.06l95.05,0l-0,53.568l-95.05,-0l0,147.07c0,34.347 14.263,51.521 42.789,51.521c21.34,-0 43.877,-7.077 67.613,-21.231l-0,55.527c-22.865,12.847 -47.797,19.271 -74.799,19.271c-27.219,0 -49.865,-7.948 -67.939,-23.844c-5.662,-4.79 -10.343,-10.18 -14.045,-16.168c-3.702,-5.988 -6.805,-13.827 -9.309,-23.517c-2.504,-9.69 -3.756,-28.145 -3.756,-55.364l-0,-133.265l-52.261,-0l-0,-5.88Z" style="fill:#57435d;fill-rule:nonzero;"/><path d="M2247.53,986.102c9.799,0 18.183,3.375 25.151,10.126c6.968,6.75 10.452,15.025 10.452,24.824c0,9.581 -3.484,17.855 -10.452,24.824c-6.968,6.968 -15.352,10.452 -25.151,10.452c-9.145,-0 -17.202,-3.539 -24.17,-10.616c-6.968,-7.077 -10.452,-15.297 -10.452,-24.66c-0,-9.146 3.484,-17.257 10.452,-24.334c6.968,-7.077 15.025,-10.616 24.17,-10.616Zm-29.396,126.406l59.446,0l0,300.5l-59.446,0l-0,-300.5Z" style="fill:#57435d;fill-rule:nonzero;"/><path d="M2547.59,1112.51l64.459,0l-132.724,305.726l-20.119,0l-135.898,-305.726l65.065,0l81.102,184.873l78.115,-184.873Z" style="fill:#57435d;fill-rule:nonzero;"/><path d="M2845.27,1232.38l-0,127.712c-0,10.234 3.484,15.352 10.452,15.352c7.186,-0 18.4,-5.335 33.643,-16.005l-0,36.256c-13.501,8.71 -24.334,14.644 -32.5,17.801c-8.166,3.157 -16.712,4.736 -25.64,4.736c-25.477,0 -40.502,-10.017 -45.075,-30.05c-25.26,19.598 -52.152,29.397 -80.678,29.397c-20.904,-0 -38.325,-6.914 -52.261,-20.741c-13.936,-13.827 -20.904,-31.193 -20.904,-52.098c-0,-18.944 6.805,-35.875 20.414,-50.791c13.61,-14.916 32.935,-26.729 57.977,-35.439l76.105,-26.13l-0,-16.005c-0,-36.147 -18.074,-54.221 -54.221,-54.221c-32.445,-0 -64.019,16.767 -94.722,50.301l-0,-64.999c23.081,-27.22 56.289,-40.829 99.622,-40.829c32.445,-0 58.467,8.492 78.064,25.477c6.533,5.444 12.412,12.684 17.638,21.721c5.227,9.037 8.547,18.073 9.963,27.11c1.415,9.037 2.123,26.185 2.123,51.445Zm-58.467,121.179l-0,-89.17l-39.849,15.352c-20.251,8.057 -34.568,16.168 -42.952,24.334c-8.383,8.166 -12.575,18.346 -12.575,30.54c-0,12.412 3.974,22.537 11.922,30.376c7.948,7.84 18.237,11.759 30.867,11.759c18.944,0 36.473,-7.73 52.587,-23.191Z" style="fill:#57435d;fill-rule:nonzero;"/><path d="M1007.58,1164.49l-0,0.007c-29.179,0 -53.404,11.13 -72.022,29.53c-18.181,17.968 -27.485,40.868 -27.912,68.703l0,0.022c0,0.624 -0.003,1.246 -0.01,1.868c0.252,28.208 9.559,51.387 27.922,69.535c18.618,18.4 42.516,27.601 71.695,27.601c29.397,-0 53.458,-9.092 72.185,-27.274c18.727,-18.183 28.09,-41.645 28.09,-70.389c0,-28.961 -9.145,-52.805 -27.436,-71.532c-18.292,-18.727 -41.7,-28.09 -70.226,-28.09c-0.764,-0 -1.525,0.006 -2.286,0.019Zm-0,-53.584c45.728,0.206 83.78,14.849 114.157,43.929c30.594,29.288 45.891,65.925 45.891,109.911c0,43.551 -15.133,79.861 -45.401,108.932c-30.268,29.07 -67.939,43.605 -113.014,43.605c-46.599,-0 -85.251,-14.318 -115.954,-42.952c-5.677,-5.295 -10.829,-10.841 -15.458,-16.64c-4.819,6.142 -10.222,12.006 -16.21,17.589c-30.703,28.635 -69.354,42.952 -115.953,42.952c-45.075,0 -82.747,-14.535 -113.014,-43.605c-30.268,-29.07 -45.402,-65.38 -45.402,-108.931c-0,-43.986 15.297,-80.623 45.891,-109.911c30.378,-29.08 68.429,-43.723 114.158,-43.93l1.019,0.01c43.108,0.507 79.327,13.428 108.651,38.762l-41.09,41.09c-18.126,-16.447 -41.167,-26.27 -68.58,-26.27c-0,-0 -1.522,-0.027 -2.287,-0.027c-28.525,0 -51.934,9.364 -70.225,28.09c-18.291,18.727 -27.437,42.571 -27.437,71.533c-0,28.743 9.363,52.206 28.09,70.388c18.727,18.183 42.789,27.274 72.185,27.274c29.179,-0 53.078,-9.2 71.696,-27.6c18.18,-17.968 27.484,-40.867 27.911,-68.697l0,-0.029c0,-0.639 0.003,-1.277 0.01,-1.913c-0.026,-2.758 0.061,-7.73 0.061,-7.73c1.156,-41.076 16.484,-75.373 45.984,-102.885c30.344,-28.299 68.451,-42.615 114.321,-42.945Z" style="fill:#57435d;fill-rule:nonzero;"/></g></svg>